<?xml version="1.0" encoding="utf-8"?>
<!-- Generator: Adobe Illustrator 27.9.0, SVG Export Plug-In . SVG Version: 6.00 Build 0)  -->
<svg version="1.1" id="livetype" xmlns="http://www.w3.org/2000/svg" xmlns:xlink="http://www.w3.org/1999/xlink" x="0px" y="0px"
	 viewBox="0 0 564 170" style="enable-background:new 0 0 564 170;" xml:space="preserve">
<style type="text/css">
	.st0{fill:#A6A6A6;}
	.st1{fill:#FFFFFF;}
</style>
<g>
	<g>
		<g>
			<path class="st0" d="M519.1,0H44.9c-1.7,0-3.4,0-5.2,0c-1.4,0-2.9,0-4.3,0.1c-3.2,0-6.3,0.3-9.4,0.8c-3.1,0.5-6.1,1.4-9,2.7
				c-2.8,1.3-5.4,3-7.6,5c-2.2,2-4.1,4.3-5.6,6.9c-1.4,2.5-2.4,5.3-2.9,8.1c-0.5,2.8-0.8,5.7-0.8,8.5c0,1.3,0,2.6-0.1,3.9v98.2
				c0,1.3,0,2.6,0.1,3.9c0,2.9,0.3,5.7,0.8,8.5c0.5,2.8,1.5,5.5,2.9,8.1c1.4,2.5,3.3,4.9,5.6,6.9c2.2,2,4.8,3.7,7.6,5
				c2.8,1.3,5.8,2.2,9,2.7c3.1,0.5,6.3,0.7,9.4,0.8c1.5,0,2.9,0,4.3,0c1.7,0,3.4,0,5.2,0h474.1c1.7,0,3.4,0,5.1,0c1.4,0,2.9,0,4.3,0
				c3.2,0,6.3-0.3,9.4-0.8c3.1-0.5,6.2-1.4,9-2.7c2.8-1.3,5.4-3,7.6-5c2.2-2,4.1-4.3,5.6-6.9c1.4-2.5,2.4-5.3,2.9-8.1
				c0.5-2.8,0.8-5.7,0.9-8.5c0-1.3,0-2.6,0-3.9c0-1.5,0-3.1,0-4.6V40.5c0-1.6,0-3.1,0-4.6c0-1.3,0-2.6,0-3.9
				c-0.1-2.9-0.3-5.7-0.9-8.5c-0.5-2.8-1.5-5.5-2.9-8.1c-2.9-5.1-7.5-9.3-13.2-11.9c-2.8-1.3-5.9-2.2-9-2.7
				c-3.1-0.5-6.3-0.7-9.4-0.8c-1.4,0-2.9,0-4.3-0.1C522.5,0,520.8,0,519.1,0L519.1,0z"/>
			<path d="M39.8,166.3c-1.4,0-2.8,0-4.3,0c-3,0-5.9-0.3-8.8-0.7c-2.7-0.4-5.3-1.2-7.8-2.3c-2.4-1.1-4.7-2.6-6.6-4.3
				c-2-1.7-3.6-3.7-4.8-5.9c-1.2-2.2-2.1-4.6-2.6-7c-0.5-2.6-0.7-5.3-0.8-8c0-0.9-0.1-3.9-0.1-3.9V35.9c0,0,0-2.9,0.1-3.8
				c0-2.7,0.3-5.3,0.8-8c0.4-2.5,1.3-4.8,2.6-7.1c1.2-2.2,2.8-4.2,4.8-5.9c1.9-1.8,4.2-3.2,6.6-4.3c2.5-1.1,5.1-1.9,7.8-2.3
				c2.9-0.4,5.9-0.7,8.8-0.7l4.3-0.1h484.4l4.3,0.1c2.9,0,5.9,0.3,8.8,0.7c2.7,0.4,5.4,1.2,7.9,2.3c4.9,2.3,8.9,5.9,11.4,10.3
				c1.2,2.2,2.1,4.6,2.5,7c0.5,2.7,0.8,5.3,0.8,8c0,1.2,0,2.5,0,3.8c0,1.6,0,3.1,0,4.6v88.9c0,1.5,0,3.1,0,4.6c0,1.4,0,2.6,0,4
				c-0.1,2.6-0.3,5.3-0.8,7.9c-0.4,2.5-1.3,4.9-2.5,7.1c-1.2,2.2-2.9,4.2-4.8,5.9c-1.9,1.8-4.2,3.2-6.6,4.3
				c-2.5,1.1-5.1,1.9-7.9,2.3c-2.9,0.4-5.9,0.7-8.8,0.7c-1.4,0-2.8,0-4.2,0l-5.1,0L39.8,166.3z"/>
		</g>
		<g id="_Group_">
			<g id="_Group_2">
				<g id="_Group_3">
					<path id="_Path_" class="st1" d="M133,86.3c0.1-7.2,3.9-13.9,10-17.6c-3.9-5.6-10.2-9-17-9.2c-7.1-0.7-14.1,4.3-17.7,4.3
						c-3.7,0-9.3-4.2-15.3-4.1c-7.9,0.3-15.2,4.7-19,11.6c-8.2,14.2-2.1,35.1,5.8,46.6c3.9,5.6,8.5,11.9,14.6,11.7
						c5.9-0.2,8.1-3.8,15.2-3.8c7,0,9.1,3.8,15.3,3.6c6.3-0.1,10.3-5.7,14.1-11.3c2.8-4,5-8.4,6.5-13.1
						C137.9,101.8,133,94.4,133,86.3z"/>
					<path id="_Path_2" class="st1" d="M121.4,51.9c3.4-4.1,5.1-9.5,4.7-14.8c-5.3,0.6-10.1,3.1-13.6,7.1c-3.5,3.9-5.2,9.1-4.9,14.3
						C113,58.5,118,56.1,121.4,51.9z"/>
				</g>
			</g>
			<g>
				<path class="st1" d="M207.5,115.3h-20.1l-4.8,14.3H174l19.1-52.8h8.9l19.1,52.8h-8.7L207.5,115.3z M189.5,108.8h15.9l-7.9-23.2
					h-0.2L189.5,108.8z"/>
				<path class="st1" d="M262.1,110.4c0,12-6.4,19.6-16.1,19.6c-5,0.3-9.7-2.4-12.1-6.7h-0.2v19.1h-7.9V91.1h7.6v6.4h0.1
					c2.5-4.4,7.2-7,12.3-6.8C255.7,90.7,262.1,98.4,262.1,110.4z M254,110.4c0-7.8-4-12.9-10.2-12.9c-6,0-10.1,5.2-10.1,12.9
					c0,7.8,4.1,12.9,10.1,12.9C250,123.3,254,118.2,254,110.4z"/>
				<path class="st1" d="M304.5,110.4c0,12-6.4,19.6-16.1,19.6c-5,0.3-9.7-2.4-12.1-6.7h-0.2v19.1h-7.9V91.1h7.6v6.4h0.1
					c2.5-4.4,7.2-7,12.3-6.8C298.1,90.7,304.5,98.4,304.5,110.4z M296.4,110.4c0-7.8-4-12.9-10.2-12.9c-6,0-10.1,5.2-10.1,12.9
					c0,7.8,4.1,12.9,10.1,12.9C292.3,123.3,296.4,118.2,296.4,110.4L296.4,110.4z"/>
				<path class="st1" d="M332.5,114.9c0.6,5.2,5.7,8.7,12.6,8.7c6.7,0,11.4-3.4,11.4-8.2c0-4.1-2.9-6.5-9.7-8.2l-6.8-1.6
					c-9.7-2.3-14.2-6.9-14.2-14.2c0-9.1,7.9-15.4,19.2-15.4c11.2,0,18.8,6.3,19.1,15.4h-8c-0.5-5.3-4.8-8.4-11.2-8.4
					c-6.4,0-10.7,3.2-10.7,7.9c0,3.7,2.8,5.9,9.6,7.6l5.8,1.4c10.8,2.6,15.3,6.9,15.3,14.6c0,9.9-7.9,16.1-20.4,16.1
					c-11.7,0-19.6-6-20.1-15.6L332.5,114.9z"/>
				<path class="st1" d="M381.9,82v9.1h7.3v6.3h-7.3v21.2c0,3.3,1.5,4.8,4.7,4.8c0.9,0,1.7-0.1,2.6-0.2v6.2
					c-1.4,0.3-2.9,0.4-4.4,0.4c-7.8,0-10.8-2.9-10.8-10.4V97.4h-5.6v-6.3h5.6V82H381.9z"/>
				<path class="st1" d="M393.5,110.4c0-12.1,7.1-19.7,18.2-19.7c11.2,0,18.3,7.6,18.3,19.7c0,12.1-7.1,19.7-18.3,19.7
					C400.5,130.1,393.5,122.5,393.5,110.4z M421.9,110.4c0-8.3-3.8-13.2-10.2-13.2c-6.4,0-10.2,4.9-10.2,13.2
					c0,8.3,3.8,13.2,10.2,13.2C418.1,123.6,421.9,118.7,421.9,110.4L421.9,110.4z"/>
				<path class="st1" d="M436.5,91.1h7.5v6.5h0.2c1.1-4.2,4.9-7.1,9.3-7c0.9,0,1.8,0.1,2.7,0.3v7.4c-1.1-0.4-2.3-0.5-3.5-0.5
					c-4.4-0.2-8.1,3.2-8.3,7.6c0,0.4,0,0.8,0,1.2v22.8h-7.9L436.5,91.1z"/>
				<path class="st1" d="M492.6,118.3c-1.1,7-7.9,11.8-16.6,11.8c-11.2,0-18.1-7.5-18.1-19.5c0-12.1,7-19.9,17.8-19.9
					c10.6,0,17.3,7.3,17.3,19v2.7h-27.2v0.5c-0.5,5.5,3.6,10.4,9.1,10.9c0.4,0,0.8,0,1.3,0c3.8,0.4,7.4-1.8,8.9-5.4L492.6,118.3z
					 M465.9,106.8h19.2c0.3-5.1-3.6-9.5-8.7-9.8c-0.2,0-0.5,0-0.7,0C470.3,97,465.9,101.4,465.9,106.8
					C465.9,106.8,465.9,106.8,465.9,106.8z"/>
			</g>
		</g>
	</g>
	<g id="_Group_4">
		<g>
			<path class="st1" d="M188.5,37.1c6.2-0.4,11.5,4.2,12,10.4c0.1,0.7,0,1.5-0.1,2.2c0,8.1-4.4,12.8-11.9,12.8h-9.2V37.1H188.5z
				 M183.3,58.9h4.8c4.4,0.3,8.2-3.1,8.4-7.5c0-0.5,0-1.1-0.1-1.6c0.6-4.4-2.5-8.4-6.8-9c-0.5-0.1-1-0.1-1.5-0.1h-4.8V58.9z"/>
			<path class="st1" d="M204.9,52.9c-0.5-5,3.2-9.4,8.2-9.9c5-0.5,9.4,3.2,9.9,8.2c0.1,0.6,0.1,1.2,0,1.7c0.5,5-3.2,9.4-8.1,9.9
				c-5,0.5-9.4-3.2-9.9-8.1C204.8,54.1,204.8,53.5,204.9,52.9z M219,52.9c0-4.1-1.9-6.6-5.1-6.6c-3.3,0-5.1,2.4-5.1,6.6
				c0,4.2,1.8,6.6,5.1,6.6C217.2,59.5,219,57.1,219,52.9L219,52.9z"/>
			<path class="st1" d="M246.9,62.5H243l-4-14.1h-0.3l-3.9,14.1h-3.9l-5.3-19.1h3.8l3.4,14.6h0.3l3.9-14.6h3.6l3.9,14.6h0.3
				l3.4-14.6h3.8L246.9,62.5z"/>
			<path class="st1" d="M256.6,43.3h3.6v3h0.3c1-2.2,3.3-3.6,5.7-3.4c3.4-0.3,6.4,2.3,6.7,5.7c0,0.5,0,0.9,0,1.4v12.4h-3.8V51
				c0-3.1-1.3-4.6-4.1-4.6c-2.4-0.1-4.5,1.8-4.6,4.2c0,0.2,0,0.4,0,0.7v11.2h-3.8L256.6,43.3z"/>
			<path class="st1" d="M278.9,35.9h3.8v26.6h-3.8V35.9z"/>
			<path class="st1" d="M287.9,52.9c-0.5-5,3.2-9.4,8.2-9.9c5-0.5,9.4,3.2,9.9,8.2c0.1,0.6,0.1,1.2,0,1.7c0.5,5-3.2,9.4-8.1,9.9
				c-5,0.5-9.4-3.2-9.9-8.1C287.8,54.1,287.8,53.5,287.9,52.9z M302.1,52.9c0-4.1-1.9-6.6-5.1-6.6c-3.3,0-5.1,2.4-5.1,6.6
				c0,4.2,1.8,6.6,5.1,6.6C300.2,59.5,302.1,57.1,302.1,52.9z"/>
			<path class="st1" d="M309.9,57.1c0-3.4,2.6-5.4,7.1-5.7l5.2-0.3v-1.7c0-2-1.3-3.2-3.9-3.2c-2.1,0-3.6,0.8-4,2.1h-3.7
				c0.4-3.3,3.5-5.4,7.8-5.4c4.8,0,7.5,2.4,7.5,6.4v13.1h-3.6v-2.7H322c-1.2,2-3.4,3.1-5.7,3c-3.2,0.3-6-2-6.3-5.2
				C309.9,57.4,309.9,57.2,309.9,57.1z M322.2,55.4v-1.6l-4.7,0.3c-2.6,0.2-3.8,1.1-3.8,2.8c0,1.7,1.5,2.7,3.5,2.7
				c2.5,0.3,4.7-1.6,4.9-4C322.2,55.5,322.2,55.5,322.2,55.4z"/>
			<path class="st1" d="M330.9,52.9c0-6,3.1-9.9,7.9-9.9c2.4-0.1,4.7,1.2,5.9,3.4h0.3V35.9h3.8v26.6h-3.6v-3h-0.3
				c-1.2,2.1-3.5,3.4-6,3.3C334,62.8,330.9,59,330.9,52.9z M334.8,52.9c0,4.1,1.9,6.5,5.1,6.5c3.2,0,5.2-2.5,5.2-6.5
				c0-4-2-6.5-5.2-6.5C336.8,46.4,334.8,48.9,334.8,52.9L334.8,52.9z"/>
			<path class="st1" d="M364.4,52.9c-0.5-5,3.2-9.4,8.2-9.9c5-0.5,9.4,3.2,9.9,8.2c0.1,0.6,0.1,1.2,0,1.7c0.5,5-3.2,9.4-8.1,9.9
				c-5,0.5-9.4-3.2-9.9-8.1C364.4,54.1,364.4,53.5,364.4,52.9z M378.6,52.9c0-4.1-1.9-6.6-5.1-6.6c-3.3,0-5.1,2.4-5.1,6.6
				c0,4.2,1.8,6.6,5.1,6.6C376.7,59.5,378.6,57.1,378.6,52.9z"/>
			<path class="st1" d="M387.6,43.3h3.6v3h0.3c1-2.2,3.3-3.6,5.7-3.4c3.4-0.3,6.4,2.3,6.7,5.7c0,0.5,0,0.9,0,1.4v12.4H400V51
				c0-3.1-1.3-4.6-4.1-4.6c-2.4-0.1-4.5,1.8-4.6,4.2c0,0.2,0,0.4,0,0.7v11.2h-3.8V43.3z"/>
			<path class="st1" d="M425.2,38.6v4.9h4.1v3.2h-4.1v9.8c0,2,0.8,2.9,2.7,2.9c0.5,0,1,0,1.4-0.1v3.1c-0.7,0.1-1.4,0.2-2.1,0.2
				c-4.2,0-5.9-1.5-5.9-5.2V46.6h-3v-3.2h3v-4.9H425.2z"/>
			<path class="st1" d="M434.5,35.9h3.7v10.5h0.3c1-2.3,3.4-3.6,5.8-3.4c3.5-0.2,6.4,2.5,6.6,6c0,0.4,0,0.8,0,1.2v12.4h-3.8V51
				c0-3.1-1.4-4.6-4.1-4.6c-2.5-0.2-4.6,1.6-4.8,4.1c0,0.3,0,0.5,0,0.8v11.2h-3.8L434.5,35.9z"/>
			<path class="st1" d="M472.9,57.3c-1.1,3.6-4.6,5.9-8.3,5.5c-4.8,0.1-8.8-3.7-8.9-8.5c0-0.5,0-0.9,0.1-1.4
				c-0.6-4.8,2.7-9.3,7.6-9.9c0.4-0.1,0.8-0.1,1.2-0.1c5.3,0,8.5,3.6,8.5,9.6v1.3h-13.5v0.2c-0.2,2.8,1.8,5.2,4.6,5.5
				c0.2,0,0.3,0,0.5,0c1.8,0.2,3.6-0.7,4.6-2.3L472.9,57.3z M459.7,51.1h9.7c0.2-2.5-1.7-4.8-4.3-4.9c-0.1,0-0.3,0-0.4,0
				c-2.7,0-4.9,2.1-5,4.8C459.7,51,459.7,51.1,459.7,51.1L459.7,51.1z"/>
		</g>
	</g>
</g>
</svg>
