<svg width="162" height="50" viewBox="0 0 162 50" fill="none" xmlns="http://www.w3.org/2000/svg">
<g clip-path="url(#clip0_1_2)">
<path d="M148.943 0.000162499H12.8944C12.3985 0.000162499 11.9085 0.0001625 11.414 0.00266249C10.9999 0.00516248 10.5891 0.012425 10.1711 0.0185374C9.26308 0.0284147 8.35711 0.102258 7.46116 0.239424C6.56646 0.379577 5.6998 0.643805 4.89046 1.02317C4.08213 1.40575 3.34352 1.90287 2.70146 2.49649C2.05601 3.08845 1.51799 3.77267 1.10806 4.52285C0.697012 5.27153 0.411987 6.07382 0.262833 6.90199C0.112262 7.72912 0.0312381 8.56579 0.0204884 9.40448C0.00793927 9.78773 0.00661324 10.1723 0 10.5556V39.4483C0.00661324 39.8364 0.00793927 40.2124 0.0204884 40.6007C0.0312411 41.4393 0.112266 42.2759 0.262833 43.103C0.411575 43.9317 0.696617 44.7344 1.10806 45.4834C1.5178 46.2311 2.0559 46.9126 2.70146 47.5013C3.34109 48.0975 4.08017 48.595 4.89046 48.9746C5.69979 49.355 6.56636 49.6208 7.46116 49.7631C8.35727 49.8992 9.26314 49.9731 10.1711 49.9841C10.5891 49.9926 10.9999 49.9975 11.414 49.9975C11.9085 50 12.3985 50 12.8944 50H148.943C149.429 50 149.922 50 150.409 49.9975C150.821 49.9975 151.244 49.9926 151.656 49.9841C152.562 49.9737 153.466 49.8998 154.36 49.7631C155.258 49.6198 156.128 49.3541 156.941 48.9746C157.751 48.5948 158.489 48.0973 159.128 47.5013C159.772 46.9103 160.311 46.2293 160.726 45.4834C161.135 44.7339 161.417 43.9312 161.564 43.103C161.714 42.2758 161.798 41.4394 161.814 40.6007C161.819 40.2124 161.819 39.8364 161.819 39.4483C161.83 38.9942 161.83 38.5425 161.83 38.081V11.9203C161.83 11.4625 161.83 11.0084 161.819 10.5556C161.819 10.1723 161.819 9.78773 161.814 9.40443C161.798 8.56566 161.714 7.72918 161.564 6.90194C161.416 6.07424 161.134 5.27202 160.726 4.5228C159.891 3.01915 158.568 1.79519 156.941 1.02306C156.128 0.64462 155.258 0.380462 154.36 0.239312C153.466 0.101541 152.562 0.0276721 151.656 0.0183624C151.244 0.0122625 150.821 0.00493748 150.409 0.00249999C149.922 0 149.429 0.000162499 148.943 0.000162499Z" fill="#A6A6A6"/>
<path d="M11.4439 48.7782C11.0319 48.7782 10.63 48.7734 10.2213 48.7649C9.37472 48.7548 8.53011 48.687 7.6944 48.5621C6.91515 48.4387 6.16027 48.2091 5.45464 47.8809C4.75549 47.5554 4.1178 47.1286 3.56602 46.6169C3.00625 46.1112 2.54021 45.5247 2.18639 44.8805C1.82865 44.2322 1.58108 43.5373 1.45229 42.82C1.31322 42.0493 1.23797 41.27 1.2272 40.4887C1.21863 40.2265 1.20741 39.3534 1.20741 39.3534V10.6311C1.20741 10.6311 1.21937 9.77147 1.22727 9.5189C1.23758 8.73892 1.31239 7.96079 1.45106 7.19125C1.58007 6.47199 1.82784 5.77508 2.18576 5.12466C2.53829 4.48099 3.00174 3.89402 3.55814 3.3865C4.11391 2.87417 4.75364 2.44519 5.45398 2.11521C6.15798 1.78806 6.91144 1.56007 7.68911 1.43889C8.52757 1.31277 9.37512 1.24459 10.2246 1.23491L11.4445 1.21973H150.378L151.613 1.23552C152.455 1.24472 153.294 1.31229 154.125 1.43767C154.911 1.56038 155.672 1.78995 156.384 2.11885C157.787 2.78386 158.928 3.83596 159.649 5.12769C160.001 5.77363 160.245 6.46485 160.372 7.17789C160.513 7.95375 160.591 8.738 160.608 9.52437C160.612 9.87649 160.612 10.2547 160.612 10.6311C160.622 11.0974 160.622 11.5412 160.622 11.9886V38.0105C160.622 38.4622 160.622 38.903 160.612 39.3473C160.612 39.7517 160.612 40.1221 160.606 40.5033C160.59 41.2756 160.513 42.0459 160.375 42.8079C160.249 43.5303 160.003 44.2306 159.645 44.8843C159.289 45.5214 158.825 46.1028 158.272 46.6072C157.72 47.1217 157.081 47.551 156.38 47.8785C155.67 48.2093 154.91 48.4397 154.125 48.5621C153.29 48.6877 152.445 48.7554 151.598 48.7649C151.202 48.7734 150.788 48.7782 150.385 48.7782L148.919 48.7807L11.4439 48.7782Z" fill="black"/>
<path d="M81.5576 28.5244C78.9476 28.5244 76.8202 30.6253 76.8202 33.519C76.8202 36.3952 78.9476 38.5138 81.5576 38.5138C84.1689 38.5138 86.2963 36.3952 86.2963 33.519C86.2952 30.6253 84.1678 28.5244 81.5576 28.5244ZM81.5576 36.5478C80.1272 36.5478 78.8943 35.2995 78.8943 33.5203C78.8943 31.7223 80.1284 30.4926 81.5576 30.4926C82.9881 30.4926 84.221 31.7223 84.221 33.5203C84.221 35.2982 82.9881 36.5478 81.5576 36.5478ZM71.2216 28.5244C68.6114 28.5244 66.4841 30.6253 66.4841 33.519C66.4841 36.3952 68.6114 38.5138 71.2216 38.5138C73.8328 38.5138 75.9601 36.3952 75.9601 33.519C75.9601 30.6253 73.8328 28.5244 71.2216 28.5244ZM71.2216 36.5478C69.7911 36.5478 68.5582 35.2995 68.5582 33.5203C68.5582 31.7223 69.7922 30.4926 71.2216 30.4926C72.652 30.4926 73.885 31.7223 73.885 33.5203C73.8861 35.2982 72.652 36.5478 71.2216 36.5478ZM58.9279 30.0582V32.1767H63.7197C63.5766 33.3688 63.2015 34.239 62.6289 34.8438C61.9319 35.5813 60.8411 36.3952 58.9279 36.3952C55.9782 36.3952 53.6722 33.8784 53.6722 30.7569C53.6722 27.6354 55.9782 25.1186 58.9279 25.1186C60.5193 25.1186 61.6812 25.781 62.539 26.6323L63.9516 25.1374C62.7532 23.9266 61.1628 23 58.9279 23C54.8873 23 51.4904 26.4809 51.4904 30.7569C51.4904 35.0329 54.8873 38.5138 58.9279 38.5138C61.1085 38.5138 62.7543 37.7562 64.0405 36.3376C65.3632 34.9377 65.7749 32.9695 65.7749 31.3804C65.7749 30.8896 65.7395 30.435 65.6673 30.0569H58.9279V30.0582ZM109.208 31.7034C108.815 30.5878 107.617 28.5244 105.167 28.5244C102.736 28.5244 100.715 30.549 100.715 33.519C100.715 36.3188 102.718 38.5138 105.399 38.5138C107.562 38.5138 108.814 37.1139 109.333 36.3L107.724 35.1644C107.188 35.997 106.455 36.5454 105.399 36.5454C104.345 36.5454 103.594 36.0346 103.111 35.0316L109.422 32.2695L109.208 31.7034ZM102.771 33.3688C102.718 31.4381 104.184 30.4551 105.239 30.4551C106.062 30.4551 106.759 30.8907 106.992 31.5144L102.771 33.3688ZM97.6411 38.2119H99.7141V23.5308H97.6411V38.2119ZM94.2431 29.6412H94.1721C93.7071 29.054 92.8126 28.5244 91.6874 28.5244C89.3269 28.5244 87.164 30.7192 87.164 33.539C87.164 36.3388 89.3269 38.5149 91.6874 38.5149C92.8137 38.5149 93.7071 37.9853 94.1721 37.3805H94.2431V38.0992C94.2431 40.0099 93.2776 41.0316 91.7229 41.0316C90.4534 41.0316 89.6665 40.0675 89.3447 39.2537L87.5392 40.0487C88.0574 41.3722 89.4335 43 91.7229 43C94.1543 43 96.2106 41.4862 96.2106 37.7962V28.8285H94.2442L94.2431 29.6412ZM91.866 36.5478C90.4356 36.5478 89.2382 35.2795 89.2382 33.539C89.2382 31.7786 90.4356 30.4926 91.866 30.4926C93.2776 30.4926 94.3863 31.7786 94.3863 33.539C94.3863 35.2795 93.2776 36.5478 91.866 36.5478ZM118.923 23.5308H113.961V38.2119H116.031V32.65H118.922C121.217 32.65 123.473 30.8919 123.473 28.091C123.473 25.29 121.218 23.5308 118.923 23.5308ZM118.976 30.6065H116.031V25.5742H118.976C120.524 25.5742 121.402 26.9307 121.402 28.091C121.402 29.2278 120.524 30.6065 118.976 30.6065ZM131.774 28.4985C130.274 28.4985 128.722 29.1973 128.078 30.7463L129.917 31.5579C130.309 30.7463 131.042 30.4809 131.809 30.4809C132.879 30.4809 133.968 31.1609 133.986 32.3693V32.5209C133.611 32.2941 132.807 31.9548 131.827 31.9548C129.846 31.9548 127.829 33.1069 127.829 35.2595C127.829 37.2242 129.453 38.4891 131.273 38.4891C132.665 38.4891 133.433 37.8279 133.914 37.0528H133.985V38.1861H135.985V32.5573C135.986 29.9524 134.146 28.4985 131.774 28.4985ZM131.523 36.5443C130.846 36.5443 129.899 36.1849 129.899 35.2971C129.899 34.1638 131.077 33.7293 132.095 33.7293C133.004 33.7293 133.434 33.9372 133.986 34.2201C133.825 35.5813 132.719 36.5443 131.523 36.5443ZM143.267 28.8191L140.893 35.1844H140.822L138.359 28.8191H136.128L139.822 37.7152L137.716 42.6641H139.875L145.569 28.8191H143.267ZM124.616 38.2119H126.686V23.5308H124.616V38.2119Z" fill="#FDFDFD"/>
<g filter="url(#filter0_dd_1_2)">
<path d="M17.5135 11.4263C17.1908 11.7927 17 12.3614 17 13.0978V39.4097C17 40.1473 17.1908 40.7149 17.5135 41.0812L17.5955 41.1669L31.337 26.4274V26.2537V26.08L17.5955 11.3394L17.5135 11.4263Z" fill="url(#paint0_linear_1_2)"/>
<path d="M35.9167 31.3415L31.3369 26.4267V26.253V26.0793L35.9177 21.1657L36.0209 21.2289L41.4481 24.5362C42.9976 25.4809 42.9976 27.0264 41.4481 27.9722L36.0209 31.2796L35.9167 31.3415Z" fill="url(#paint1_linear_1_2)"/>
<g filter="url(#filter1_d_1_2)">
<path d="M36.0214 31.2789L31.3362 26.2536L17.5138 41.0811C18.024 41.6617 18.8681 41.733 19.8186 41.1548L36.0214 31.2789Z" fill="url(#paint2_linear_1_2)"/>
</g>
<path d="M36.0214 21.2281L19.8186 11.3534C18.8681 10.774 18.024 10.8466 17.5138 11.4272L31.3373 26.2547L36.0214 21.2281Z" fill="url(#paint3_linear_1_2)"/>
</g>
<path d="M53.5597 13.7267V12.9317H55.6396V15.7722C55.3073 15.8811 54.985 15.9585 54.6727 16.0043C54.3604 16.053 54.0181 16.0774 53.6457 16.0774C52.7891 16.0774 52.1287 15.8238 51.6646 15.3167C51.2005 14.8097 50.9685 14.0977 50.9685 13.181C50.9685 12.2642 51.2292 11.5495 51.7506 11.0367C52.2748 10.521 52.9968 10.2631 53.9164 10.2631C54.5008 10.2631 55.0595 10.3777 55.5923 10.6069L55.27 11.3761C54.8059 11.1641 54.3461 11.0581 53.8906 11.0581C53.289 11.0581 52.812 11.2472 52.4596 11.6254C52.1101 12.0064 51.9354 12.5335 51.9354 13.2068C51.9354 13.8771 52.0929 14.3928 52.4081 14.7538C52.7232 15.1148 53.1773 15.2952 53.7703 15.2952C54.0654 15.2952 54.3862 15.258 54.7329 15.1835V13.7267H53.5597ZM60.1974 15.2136V16H57.0002V10.3448H60.1974V11.1269H57.9241V12.6653H60.0556V13.4388H57.9241V15.2136H60.1974ZM63.3755 11.1398V16H62.4516V11.1398H60.7886V10.3448H65.0386V11.1398H63.3755ZM69.1136 16H68.1897V10.3448H69.1136V16ZM72.5562 11.1398V16H71.6323V11.1398H69.9692V10.3448H74.2192V11.1398H72.5562ZM81.4055 13.1638C81.4055 12.4676 81.2665 11.9419 80.9887 11.5867C80.7108 11.2286 80.2968 11.0495 79.7467 11.0495C79.1967 11.0495 78.7799 11.2286 78.4962 11.5867C78.2126 11.9448 78.0708 12.4719 78.0708 13.1681C78.0708 13.8614 78.2112 14.3885 78.4919 14.7495C78.7756 15.1076 79.1924 15.2867 79.7424 15.2867C80.8511 15.2867 81.4055 14.579 81.4055 13.1638ZM81.6977 11.0238C82.1589 11.5308 82.3896 12.2442 82.3896 13.1638C82.3896 14.0834 82.1589 14.7996 81.6977 15.3124C81.2393 15.8224 80.5847 16.0774 79.7339 16.0774C78.8859 16.0774 78.2327 15.8238 77.7743 15.3167C77.3188 14.8097 77.091 14.0891 77.091 13.1552C77.091 12.2213 77.3202 11.5051 77.7786 11.0066C78.237 10.5081 78.8887 10.2588 79.7339 10.2588C80.5818 10.2588 81.2365 10.5138 81.6977 11.0238ZM88.314 10.3448V16H87.1796L84.3992 11.4965H84.3692L84.3863 11.7457C84.4236 12.2041 84.4422 12.6424 84.4422 13.0607V16H83.6042V10.3448H84.7258L87.4976 14.8268H87.5191C87.4847 14.0906 87.4675 13.5849 87.4675 13.3099V10.3448H88.314Z" fill="white"/>
</g>
<defs>
<filter id="filter0_dd_1_2" x="17" y="10.8056" width="25.6102" height="30.8966" filterUnits="userSpaceOnUse" color-interpolation-filters="sRGB">
<feFlood flood-opacity="0" result="BackgroundImageFix"/>
<feColorMatrix in="SourceAlpha" type="matrix" values="0 0 0 0 0 0 0 0 0 0 0 0 0 0 0 0 0 0 127 0" result="hardAlpha"/>
<feOffset dy="-0.147981"/>
<feComposite in2="hardAlpha" operator="out"/>
<feColorMatrix type="matrix" values="0 0 0 0 0 0 0 0 0 0 0 0 0 0 0 0 0 0 0.12 0"/>
<feBlend mode="normal" in2="BackgroundImageFix" result="effect1_dropShadow_1_2"/>
<feColorMatrix in="SourceAlpha" type="matrix" values="0 0 0 0 0 0 0 0 0 0 0 0 0 0 0 0 0 0 127 0" result="hardAlpha"/>
<feOffset dy="0.147981"/>
<feComposite in2="hardAlpha" operator="out"/>
<feColorMatrix type="matrix" values="0 0 0 0 1 0 0 0 0 1 0 0 0 0 1 0 0 0 0.25 0"/>
<feBlend mode="normal" in2="effect1_dropShadow_1_2" result="effect2_dropShadow_1_2"/>
<feBlend mode="normal" in="SourceGraphic" in2="effect2_dropShadow_1_2" result="shape"/>
</filter>
<filter id="filter1_d_1_2" x="17.5138" y="26.1056" width="18.5076" height="15.4486" filterUnits="userSpaceOnUse" color-interpolation-filters="sRGB">
<feFlood flood-opacity="0" result="BackgroundImageFix"/>
<feColorMatrix in="SourceAlpha" type="matrix" values="0 0 0 0 0 0 0 0 0 0 0 0 0 0 0 0 0 0 127 0" result="hardAlpha"/>
<feOffset dy="-0.147981"/>
<feComposite in2="hardAlpha" operator="out"/>
<feColorMatrix type="matrix" values="0 0 0 0 0 0 0 0 0 0 0 0 0 0 0 0 0 0 0.08 0"/>
<feBlend mode="normal" in2="BackgroundImageFix" result="effect1_dropShadow_1_2"/>
<feBlend mode="normal" in="SourceGraphic" in2="effect1_dropShadow_1_2" result="shape"/>
</filter>
<linearGradient id="paint0_linear_1_2" x1="30.1189" y1="12.8194" x2="10.202" y2="31.3877" gradientUnits="userSpaceOnUse">
<stop stop-color="#00A0FF"/>
<stop offset="0.0066" stop-color="#00A1FF"/>
<stop offset="0.2601" stop-color="#00BEFF"/>
<stop offset="0.5122" stop-color="#00D2FF"/>
<stop offset="0.7604" stop-color="#00DFFF"/>
<stop offset="1" stop-color="#00E3FF"/>
</linearGradient>
<linearGradient id="paint1_linear_1_2" x1="43.4651" y1="26.253" x2="16.6278" y2="26.253" gradientUnits="userSpaceOnUse">
<stop stop-color="#FFE000"/>
<stop offset="0.4087" stop-color="#FFBD00"/>
<stop offset="0.7754" stop-color="#FFA500"/>
<stop offset="1" stop-color="#FF9C00"/>
</linearGradient>
<linearGradient id="paint2_linear_1_2" x1="33.477" y1="28.9826" x2="6.46717" y2="54.1637" gradientUnits="userSpaceOnUse">
<stop stop-color="#FF3A44"/>
<stop offset="1" stop-color="#C31162"/>
</linearGradient>
<linearGradient id="paint3_linear_1_2" x1="14.0326" y1="2.66825" x2="26.0933" y2="13.9123" gradientUnits="userSpaceOnUse">
<stop stop-color="#32A071"/>
<stop offset="0.0685" stop-color="#2DA771"/>
<stop offset="0.4762" stop-color="#15CF74"/>
<stop offset="0.8009" stop-color="#06E775"/>
<stop offset="1" stop-color="#00F076"/>
</linearGradient>
<clipPath id="clip0_1_2">
<rect width="162" height="50" fill="white"/>
</clipPath>
</defs>
</svg>
